<svg xmlns="http://www.w3.org/2000/svg" viewBox="0 0 448 256" preserveAspectRatio="none">
    <polygon points="163 0 0 0 0 88.61 34 121 163 0"/>
    <polygon points="154 116 163 0 34 121 154 116"/>
    <polygon points="413.05 0 163 0 348 67 413.05 0"/>
    <polygon points="348 67 448 102 448 0 413.05 0 348 67"/>
    <polygon points="312 231 448 210 448 102 348 67 312 231"/>
    <polygon points="348 67 163 0 154 116 348 67"/>
    <polygon points="312 231 348 67 154 116 312 231"/>
    <polygon points="154 116 34 121 45.77 233.64 154 116"/>
    <polygon points="48 231 312 231 154 116 48 231"/>
    <polygon points="0 88.61 0 160 34 121 0 88.61"/>
    <polygon points="34 121 0 157.86 0 330.37 62 389 34 121"/>
    <polygon points="62 389 312 231 45.49 231 62 389"/>
</svg>